<mxfile host="app.diagrams.net" modified="2024-03-11T03:28:39.169Z" agent="Mozilla/5.0 (Windows NT 10.0; Win64; x64) AppleWebKit/537.36 (KHTML, like Gecko) Chrome/122.0.0.0 Safari/537.36" etag="uabLKCVqBRQ12wno5avE" version="24.0.4" type="google">
  <diagram id="C5RBs43oDa-KdzZeNtuy" name="Page-1">
    <mxGraphModel grid="1" page="1" gridSize="10" guides="1" tooltips="1" connect="1" arrows="1" fold="1" pageScale="1" pageWidth="827" pageHeight="1169" math="0" shadow="0">
      <root>
        <mxCell id="WIyWlLk6GJQsqaUBKTNV-0" />
        <mxCell id="WIyWlLk6GJQsqaUBKTNV-1" parent="WIyWlLk6GJQsqaUBKTNV-0" />
        <mxCell id="WIyWlLk6GJQsqaUBKTNV-2" value="" style="rounded=0;html=1;jettySize=auto;orthogonalLoop=1;fontSize=11;endArrow=block;endFill=0;endSize=8;strokeWidth=1;shadow=0;labelBackgroundColor=none;edgeStyle=orthogonalEdgeStyle;" edge="1" parent="WIyWlLk6GJQsqaUBKTNV-1" source="WIyWlLk6GJQsqaUBKTNV-3" target="WIyWlLk6GJQsqaUBKTNV-6">
          <mxGeometry relative="1" as="geometry" />
        </mxCell>
        <mxCell id="WIyWlLk6GJQsqaUBKTNV-3" value="Start" style="rounded=1;whiteSpace=wrap;html=1;fontSize=12;glass=0;strokeWidth=1;shadow=0;" vertex="1" parent="WIyWlLk6GJQsqaUBKTNV-1">
          <mxGeometry x="180" y="100" width="80" height="30" as="geometry" />
        </mxCell>
        <mxCell id="WIyWlLk6GJQsqaUBKTNV-4" value="" style="rounded=0;html=1;jettySize=auto;orthogonalLoop=1;fontSize=11;endArrow=block;endFill=0;endSize=8;strokeWidth=1;shadow=0;labelBackgroundColor=none;edgeStyle=orthogonalEdgeStyle;" edge="1" parent="WIyWlLk6GJQsqaUBKTNV-1" source="WIyWlLk6GJQsqaUBKTNV-6" target="WIyWlLk6GJQsqaUBKTNV-10">
          <mxGeometry y="20" relative="1" as="geometry">
            <mxPoint as="offset" />
          </mxGeometry>
        </mxCell>
        <mxCell id="WIyWlLk6GJQsqaUBKTNV-6" value="Nhập a,b,c" style="rhombus;whiteSpace=wrap;html=1;shadow=0;fontFamily=Helvetica;fontSize=12;align=center;strokeWidth=1;spacing=6;spacingTop=-4;" vertex="1" parent="WIyWlLk6GJQsqaUBKTNV-1">
          <mxGeometry x="170" y="170" width="100" height="80" as="geometry" />
        </mxCell>
        <mxCell id="WIyWlLk6GJQsqaUBKTNV-8" value="" style="rounded=0;html=1;jettySize=auto;orthogonalLoop=1;fontSize=11;endArrow=block;endFill=0;endSize=8;strokeWidth=1;shadow=0;labelBackgroundColor=none;edgeStyle=orthogonalEdgeStyle;" edge="1" parent="WIyWlLk6GJQsqaUBKTNV-1" source="WIyWlLk6GJQsqaUBKTNV-10" target="WIyWlLk6GJQsqaUBKTNV-11">
          <mxGeometry x="0.3333" y="20" relative="1" as="geometry">
            <mxPoint as="offset" />
          </mxGeometry>
        </mxCell>
        <mxCell id="WIyWlLk6GJQsqaUBKTNV-10" value="tính tổng d=a+b+c" style="rhombus;whiteSpace=wrap;html=1;shadow=0;fontFamily=Helvetica;fontSize=12;align=center;strokeWidth=1;spacing=6;spacingTop=-4;" vertex="1" parent="WIyWlLk6GJQsqaUBKTNV-1">
          <mxGeometry x="170" y="280" width="100" height="90" as="geometry" />
        </mxCell>
        <mxCell id="aKSTuU8EB8lDv6753sPs-1" value="" style="edgeStyle=orthogonalEdgeStyle;rounded=0;orthogonalLoop=1;jettySize=auto;html=1;" edge="1" parent="WIyWlLk6GJQsqaUBKTNV-1" source="WIyWlLk6GJQsqaUBKTNV-11" target="aKSTuU8EB8lDv6753sPs-0">
          <mxGeometry relative="1" as="geometry" />
        </mxCell>
        <mxCell id="WIyWlLk6GJQsqaUBKTNV-11" value="xuất tổng d" style="rounded=1;whiteSpace=wrap;html=1;fontSize=12;glass=0;strokeWidth=1;shadow=0;" vertex="1" parent="WIyWlLk6GJQsqaUBKTNV-1">
          <mxGeometry x="160" y="410" width="120" height="40" as="geometry" />
        </mxCell>
        <mxCell id="aKSTuU8EB8lDv6753sPs-0" value="End" style="whiteSpace=wrap;html=1;rounded=1;glass=0;strokeWidth=1;shadow=0;" vertex="1" parent="WIyWlLk6GJQsqaUBKTNV-1">
          <mxGeometry x="180" y="510" width="80" height="30" as="geometry" />
        </mxCell>
        <mxCell id="aKSTuU8EB8lDv6753sPs-6" value="&lt;div&gt;&lt;br&gt;&lt;/div&gt;&lt;div&gt;&lt;span style=&quot;background-color: initial;&quot;&gt;&amp;nbsp;Xây dựng prototype:&lt;/span&gt;&lt;br&gt;&lt;/div&gt;&lt;div&gt;a = 5&lt;/div&gt;&lt;div&gt;b = 10&lt;/div&gt;&lt;div&gt;c = 15&lt;/div&gt;&lt;div&gt;print(&quot;Tổng của ba số là:&quot;, tong_ba_so(a, b, c))&lt;/div&gt;&lt;div&gt;&lt;br&gt;&lt;/div&gt;" style="text;html=1;align=center;verticalAlign=middle;resizable=0;points=[];autosize=1;strokeColor=none;fillColor=none;" vertex="1" parent="WIyWlLk6GJQsqaUBKTNV-1">
          <mxGeometry x="460" y="115" width="270" height="110" as="geometry" />
        </mxCell>
        <mxCell id="aKSTuU8EB8lDv6753sPs-7" value="Bài1" style="text;html=1;align=center;verticalAlign=middle;resizable=0;points=[];autosize=1;strokeColor=none;fillColor=none;" vertex="1" parent="WIyWlLk6GJQsqaUBKTNV-1">
          <mxGeometry x="85" y="38" width="50" height="30" as="geometry" />
        </mxCell>
        <mxCell id="aKSTuU8EB8lDv6753sPs-8" value="Bài2" style="text;html=1;align=center;verticalAlign=middle;resizable=0;points=[];autosize=1;strokeColor=none;fillColor=none;" vertex="1" parent="WIyWlLk6GJQsqaUBKTNV-1">
          <mxGeometry x="85" y="668" width="50" height="30" as="geometry" />
        </mxCell>
        <mxCell id="aKSTuU8EB8lDv6753sPs-11" value="" style="edgeStyle=orthogonalEdgeStyle;rounded=0;orthogonalLoop=1;jettySize=auto;html=1;" edge="1" parent="WIyWlLk6GJQsqaUBKTNV-1" source="aKSTuU8EB8lDv6753sPs-9" target="aKSTuU8EB8lDv6753sPs-10">
          <mxGeometry relative="1" as="geometry" />
        </mxCell>
        <mxCell id="aKSTuU8EB8lDv6753sPs-9" value="Start" style="ellipse;whiteSpace=wrap;html=1;" vertex="1" parent="WIyWlLk6GJQsqaUBKTNV-1">
          <mxGeometry x="180" y="690" width="80" height="80" as="geometry" />
        </mxCell>
        <mxCell id="aKSTuU8EB8lDv6753sPs-13" value="" style="edgeStyle=orthogonalEdgeStyle;rounded=0;orthogonalLoop=1;jettySize=auto;html=1;" edge="1" parent="WIyWlLk6GJQsqaUBKTNV-1" source="aKSTuU8EB8lDv6753sPs-10" target="aKSTuU8EB8lDv6753sPs-12">
          <mxGeometry relative="1" as="geometry" />
        </mxCell>
        <mxCell id="aKSTuU8EB8lDv6753sPs-10" value="Nhập R" style="rhombus;whiteSpace=wrap;html=1;" vertex="1" parent="WIyWlLk6GJQsqaUBKTNV-1">
          <mxGeometry x="180" y="810" width="80" height="80" as="geometry" />
        </mxCell>
        <mxCell id="aKSTuU8EB8lDv6753sPs-15" value="" style="edgeStyle=orthogonalEdgeStyle;rounded=0;orthogonalLoop=1;jettySize=auto;html=1;" edge="1" parent="WIyWlLk6GJQsqaUBKTNV-1" source="aKSTuU8EB8lDv6753sPs-12" target="aKSTuU8EB8lDv6753sPs-14">
          <mxGeometry relative="1" as="geometry" />
        </mxCell>
        <mxCell id="aKSTuU8EB8lDv6753sPs-12" value="tính chu vi P=2*pi*R" style="rounded=1;whiteSpace=wrap;html=1;" vertex="1" parent="WIyWlLk6GJQsqaUBKTNV-1">
          <mxGeometry x="160" y="930" width="120" height="60" as="geometry" />
        </mxCell>
        <mxCell id="aKSTuU8EB8lDv6753sPs-17" value="" style="edgeStyle=orthogonalEdgeStyle;rounded=0;orthogonalLoop=1;jettySize=auto;html=1;" edge="1" parent="WIyWlLk6GJQsqaUBKTNV-1" source="aKSTuU8EB8lDv6753sPs-14" target="aKSTuU8EB8lDv6753sPs-16">
          <mxGeometry relative="1" as="geometry" />
        </mxCell>
        <mxCell id="aKSTuU8EB8lDv6753sPs-14" value="xuất P" style="shape=trapezoid;perimeter=trapezoidPerimeter;whiteSpace=wrap;html=1;fixedSize=1;rounded=1;" vertex="1" parent="WIyWlLk6GJQsqaUBKTNV-1">
          <mxGeometry x="160" y="1020" width="120" height="60" as="geometry" />
        </mxCell>
        <mxCell id="aKSTuU8EB8lDv6753sPs-16" value="End" style="shape=parallelogram;perimeter=parallelogramPerimeter;whiteSpace=wrap;html=1;fixedSize=1;rounded=1;" vertex="1" parent="WIyWlLk6GJQsqaUBKTNV-1">
          <mxGeometry x="160" y="1130" width="120" height="60" as="geometry" />
        </mxCell>
        <mxCell id="aKSTuU8EB8lDv6753sPs-18" value="&lt;div&gt;&lt;br&gt;&lt;/div&gt;&lt;div&gt;&amp;nbsp;Xây dựng&amp;nbsp;prototype:&lt;/div&gt;&lt;div&gt;R = 5&lt;/div&gt;&lt;div&gt;print(&quot;Chu vi của hình tròn là:&quot;, tinh_chu_vi(R))&lt;/div&gt;&lt;div&gt;&lt;br&gt;&lt;/div&gt;" style="text;html=1;align=center;verticalAlign=middle;resizable=0;points=[];autosize=1;strokeColor=none;fillColor=none;" vertex="1" parent="WIyWlLk6GJQsqaUBKTNV-1">
          <mxGeometry x="460" y="715" width="270" height="90" as="geometry" />
        </mxCell>
        <mxCell id="aKSTuU8EB8lDv6753sPs-19" value="Bài3" style="text;html=1;align=center;verticalAlign=middle;resizable=0;points=[];autosize=1;strokeColor=none;fillColor=none;" vertex="1" parent="WIyWlLk6GJQsqaUBKTNV-1">
          <mxGeometry x="85" y="1270" width="50" height="30" as="geometry" />
        </mxCell>
        <mxCell id="aKSTuU8EB8lDv6753sPs-41" value="" style="edgeStyle=orthogonalEdgeStyle;rounded=0;orthogonalLoop=1;jettySize=auto;html=1;" edge="1" parent="WIyWlLk6GJQsqaUBKTNV-1" source="aKSTuU8EB8lDv6753sPs-20" target="aKSTuU8EB8lDv6753sPs-24">
          <mxGeometry relative="1" as="geometry" />
        </mxCell>
        <mxCell id="aKSTuU8EB8lDv6753sPs-20" value="&lt;span style=&quot;text-wrap: nowrap;&quot;&gt;Nhập diện tích&lt;/span&gt;&lt;div&gt;&lt;span style=&quot;text-wrap: nowrap;&quot;&gt;&amp;nbsp;A1 của hình vuông&lt;/span&gt;&lt;/div&gt;" style="rounded=1;whiteSpace=wrap;html=1;" vertex="1" parent="WIyWlLk6GJQsqaUBKTNV-1">
          <mxGeometry x="70" y="1400" width="120" height="60" as="geometry" />
        </mxCell>
        <mxCell id="aKSTuU8EB8lDv6753sPs-42" value="" style="edgeStyle=orthogonalEdgeStyle;rounded=0;orthogonalLoop=1;jettySize=auto;html=1;" edge="1" parent="WIyWlLk6GJQsqaUBKTNV-1" source="aKSTuU8EB8lDv6753sPs-21" target="aKSTuU8EB8lDv6753sPs-26">
          <mxGeometry relative="1" as="geometry" />
        </mxCell>
        <mxCell id="aKSTuU8EB8lDv6753sPs-21" value="Nhập bán kính R&lt;div&gt;của hình tròn&lt;/div&gt;" style="ellipse;whiteSpace=wrap;html=1;rounded=1;" vertex="1" parent="WIyWlLk6GJQsqaUBKTNV-1">
          <mxGeometry x="250" y="1400" width="100" height="60" as="geometry" />
        </mxCell>
        <mxCell id="aKSTuU8EB8lDv6753sPs-43" value="" style="edgeStyle=orthogonalEdgeStyle;rounded=0;orthogonalLoop=1;jettySize=auto;html=1;" edge="1" parent="WIyWlLk6GJQsqaUBKTNV-1" source="aKSTuU8EB8lDv6753sPs-24" target="aKSTuU8EB8lDv6753sPs-28">
          <mxGeometry relative="1" as="geometry">
            <Array as="points">
              <mxPoint x="130" y="1640" />
              <mxPoint x="220" y="1640" />
            </Array>
          </mxGeometry>
        </mxCell>
        <mxCell id="aKSTuU8EB8lDv6753sPs-24" value="Tính diện tích&lt;div&gt;A1&lt;/div&gt;" style="rhombus;whiteSpace=wrap;html=1;rounded=1;" vertex="1" parent="WIyWlLk6GJQsqaUBKTNV-1">
          <mxGeometry x="75" y="1520" width="110" height="100" as="geometry" />
        </mxCell>
        <mxCell id="aKSTuU8EB8lDv6753sPs-29" value="" style="edgeStyle=orthogonalEdgeStyle;rounded=0;orthogonalLoop=1;jettySize=auto;html=1;" edge="1" parent="WIyWlLk6GJQsqaUBKTNV-1" source="aKSTuU8EB8lDv6753sPs-26" target="aKSTuU8EB8lDv6753sPs-28">
          <mxGeometry relative="1" as="geometry" />
        </mxCell>
        <mxCell id="aKSTuU8EB8lDv6753sPs-26" value="&amp;nbsp;Tính diện tích của&amp;nbsp;&lt;div&gt;hình tròn&lt;/div&gt;" style="shape=parallelogram;perimeter=parallelogramPerimeter;whiteSpace=wrap;html=1;fixedSize=1;rounded=1;" vertex="1" parent="WIyWlLk6GJQsqaUBKTNV-1">
          <mxGeometry x="235" y="1520" width="130" height="60" as="geometry" />
        </mxCell>
        <mxCell id="aKSTuU8EB8lDv6753sPs-45" value="" style="edgeStyle=orthogonalEdgeStyle;rounded=0;orthogonalLoop=1;jettySize=auto;html=1;" edge="1" parent="WIyWlLk6GJQsqaUBKTNV-1" source="aKSTuU8EB8lDv6753sPs-28" target="aKSTuU8EB8lDv6753sPs-44">
          <mxGeometry relative="1" as="geometry" />
        </mxCell>
        <mxCell id="aKSTuU8EB8lDv6753sPs-28" value="So sánh diện tích&amp;nbsp;&lt;div&gt;hình vuông và hình&lt;/div&gt;&lt;div&gt;tròn&lt;/div&gt;" style="shape=trapezoid;perimeter=trapezoidPerimeter;whiteSpace=wrap;html=1;fixedSize=1;rounded=1;" vertex="1" parent="WIyWlLk6GJQsqaUBKTNV-1">
          <mxGeometry x="140" y="1694" width="160" height="60" as="geometry" />
        </mxCell>
        <mxCell id="aKSTuU8EB8lDv6753sPs-32" value="" style="edgeStyle=orthogonalEdgeStyle;rounded=0;orthogonalLoop=1;jettySize=auto;html=1;" edge="1" parent="WIyWlLk6GJQsqaUBKTNV-1" source="aKSTuU8EB8lDv6753sPs-31" target="aKSTuU8EB8lDv6753sPs-20">
          <mxGeometry relative="1" as="geometry" />
        </mxCell>
        <mxCell id="aKSTuU8EB8lDv6753sPs-37" value="" style="edgeStyle=orthogonalEdgeStyle;rounded=0;orthogonalLoop=1;jettySize=auto;html=1;" edge="1" parent="WIyWlLk6GJQsqaUBKTNV-1" source="aKSTuU8EB8lDv6753sPs-31" target="aKSTuU8EB8lDv6753sPs-21">
          <mxGeometry relative="1" as="geometry" />
        </mxCell>
        <mxCell id="aKSTuU8EB8lDv6753sPs-31" value="Start" style="shape=hexagon;perimeter=hexagonPerimeter2;whiteSpace=wrap;html=1;fixedSize=1;" vertex="1" parent="WIyWlLk6GJQsqaUBKTNV-1">
          <mxGeometry x="160" y="1300" width="120" height="60" as="geometry" />
        </mxCell>
        <mxCell id="aKSTuU8EB8lDv6753sPs-47" value="" style="edgeStyle=orthogonalEdgeStyle;rounded=0;orthogonalLoop=1;jettySize=auto;html=1;" edge="1" parent="WIyWlLk6GJQsqaUBKTNV-1" source="aKSTuU8EB8lDv6753sPs-44" target="aKSTuU8EB8lDv6753sPs-46">
          <mxGeometry relative="1" as="geometry" />
        </mxCell>
        <mxCell id="aKSTuU8EB8lDv6753sPs-44" value="Xuất kết quả" style="shape=step;perimeter=stepPerimeter;whiteSpace=wrap;html=1;fixedSize=1;rounded=1;" vertex="1" parent="WIyWlLk6GJQsqaUBKTNV-1">
          <mxGeometry x="160" y="1800" width="120" height="80" as="geometry" />
        </mxCell>
        <mxCell id="aKSTuU8EB8lDv6753sPs-46" value="End" style="shape=tape;whiteSpace=wrap;html=1;rounded=1;" vertex="1" parent="WIyWlLk6GJQsqaUBKTNV-1">
          <mxGeometry x="160" y="1910" width="120" height="100" as="geometry" />
        </mxCell>
        <mxCell id="aKSTuU8EB8lDv6753sPs-48" value="&lt;div&gt;&lt;br&gt;&lt;/div&gt;&lt;div&gt;Xây dựng prototype:&lt;/div&gt;&lt;div&gt;A1 = 25&lt;/div&gt;&lt;div&gt;R = 5&lt;/div&gt;&lt;div&gt;print(so_sanh_dien_tich(A1, R))&lt;/div&gt;&lt;div&gt;&lt;br&gt;&lt;/div&gt;" style="text;html=1;align=center;verticalAlign=middle;resizable=0;points=[];autosize=1;strokeColor=none;fillColor=none;" vertex="1" parent="WIyWlLk6GJQsqaUBKTNV-1">
          <mxGeometry x="500" y="1400" width="190" height="100" as="geometry" />
        </mxCell>
      </root>
    </mxGraphModel>
  </diagram>
</mxfile>
